<?xml version="1.0" standalone="no"?>
<!DOCTYPE svg PUBLIC "-//W3C//DTD SVG 20010904//EN"
 "http://www.w3.org/TR/2001/REC-SVG-20010904/DTD/svg10.dtd">
<svg version="1.0" xmlns="http://www.w3.org/2000/svg"
 width="1155.000000pt" height="1155.000000pt" viewBox="0 0 1155.000000 1155.000000"
 preserveAspectRatio="xMidYMid meet">
<metadata>
Created by potrace 1.11, written by Peter Selinger 2001-2013
</metadata>
<g transform="translate(0.000000,1155.000000) scale(0.100000,-0.100000)"
fill="#000000" stroke="none">
<path d="M700 9625 l0 -1225 1225 0 1225 0 0 1225 0 1225 -1225 0 -1225 0 0
-1225z m2080 0 l0 -855 -855 0 -855 0 0 855 0 855 855 0 855 0 0 -855z"/>
<path d="M1400 9625 l0 -525 525 0 525 0 0 525 0 525 -525 0 -525 0 0 -525z"/>
<path d="M4200 10675 l0 -175 -175 0 -175 0 0 -175 0 -175 -175 0 -175 0 0
-1050 0 -1050 175 0 175 0 0 -175 0 -175 -350 0 -350 0 0 175 0 175 -875 0
-875 0 0 -175 0 -175 -175 0 -175 0 0 175 0 175 -175 0 -175 0 0 -175 0 -175
175 0 175 0 0 -175 0 -175 350 0 350 0 0 -525 0 -525 -350 0 -350 0 0 175 0
175 175 0 175 0 0 175 0 175 -350 0 -350 0 0 -525 0 -525 525 0 525 0 0 175 0
175 175 0 175 0 0 -175 0 -175 175 0 175 0 0 350 0 350 175 0 175 0 0 -175 0
-175 175 0 175 0 0 -175 0 -175 -175 0 -175 0 0 -175 0 -175 -875 0 -875 0 0
-350 0 -350 -175 0 -175 0 0 -700 0 -700 175 0 175 0 0 700 0 700 175 0 175 0
0 -350 0 -350 350 0 350 0 0 -175 0 -175 -175 0 -175 0 0 -175 0 -175 175 0
175 0 0 175 0 175 350 0 350 0 0 -175 0 -175 350 0 350 0 0 -175 0 -175 350 0
350 0 0 -175 0 -175 175 0 175 0 0 -175 0 -175 -350 0 -350 0 0 175 0 175
-175 0 -175 0 0 -700 0 -700 175 0 175 0 0 -175 0 -175 -175 0 -175 0 0 -175
0 -175 700 0 700 0 0 175 0 175 -350 0 -350 0 0 175 0 175 175 0 175 0 0 175
0 175 -175 0 -175 0 0 -175 0 -175 -175 0 -175 0 0 350 0 350 350 0 350 0 0
175 0 175 350 0 350 0 0 175 0 175 -175 0 -175 0 0 175 0 175 175 0 175 0 0
175 0 175 -175 0 -175 0 0 175 0 175 350 0 350 0 0 -175 0 -175 350 0 350 0 0
-175 0 -175 -175 0 -175 0 0 -175 0 -175 -175 0 -175 0 0 -175 0 -175 175 0
175 0 0 -175 0 -175 -350 0 -350 0 0 -175 0 -175 175 0 175 0 0 -350 0 -350
-175 0 -175 0 0 -175 0 -175 175 0 175 0 0 175 0 175 175 0 175 0 0 -175 0
-175 175 0 175 0 0 175 0 175 -175 0 -175 0 0 175 0 175 350 0 350 0 0 175 0
175 350 0 350 0 0 -175 0 -175 175 0 175 0 0 -175 0 -175 -175 0 -175 0 0
-175 0 -175 175 0 175 0 0 175 0 175 175 0 175 0 0 -175 0 -175 350 0 350 0 0
175 0 175 175 0 175 0 0 -175 0 -175 525 0 525 0 0 175 0 175 175 0 175 0 0
350 0 350 175 0 175 0 0 175 0 175 -175 0 -175 0 0 175 0 175 175 0 175 0 0
175 0 175 -350 0 -350 0 0 175 0 175 350 0 350 0 0 350 0 350 -175 0 -175 0 0
175 0 175 -175 0 -175 0 0 525 0 525 175 0 175 0 0 175 0 175 -175 0 -175 0 0
175 0 175 -350 0 -350 0 0 175 0 175 350 0 350 0 0 175 0 175 175 0 175 0 0
175 0 175 -175 0 -175 0 0 -175 0 -175 -175 0 -175 0 0 175 0 175 -350 0 -350
0 0 175 0 175 175 0 175 0 0 175 0 175 350 0 350 0 0 175 0 175 -875 0 -875 0
0 -350 0 -350 -175 0 -175 0 0 1050 0 1050 -525 0 -525 0 0 175 0 175 350 0
350 0 0 175 0 175 -350 0 -350 0 0 175 0 175 350 0 350 0 0 175 0 175 -525 0
-525 0 0 -175 0 -175 -175 0 -175 0 0 175 0 175 -525 0 -525 0 0 -175 0 -175
-175 0 -175 0 0 -350 0 -350 -350 0 -350 0 0 -175 0 -175 -175 0 -175 0 0 350
0 350 350 0 350 0 0 350 0 350 -175 0 -175 0 0 -175z m1750 -700 l0 -175 -175
0 -175 0 0 -175 0 -175 175 0 175 0 0 -175 0 -175 525 0 525 0 0 -350 0 -350
175 0 175 0 0 350 0 350 175 0 175 0 0 -700 0 -700 -350 0 -350 0 0 175 0 175
-175 0 -175 0 0 -350 0 -350 -175 0 -175 0 0 175 0 175 -525 0 -525 0 0 175 0
175 -175 0 -175 0 0 -175 0 -175 -175 0 -175 0 0 175 0 175 -350 0 -350 0 0
525 0 525 175 0 175 0 0 175 0 175 350 0 350 0 0 -175 0 -175 -350 0 -350 0 0
-350 0 -350 175 0 175 0 0 175 0 175 175 0 175 0 0 -175 0 -175 175 0 175 0 0
700 0 700 175 0 175 0 0 175 0 175 175 0 175 0 0 -175z m1050 0 l0 -175 -175
0 -175 0 0 -175 0 -175 -175 0 -175 0 0 350 0 350 350 0 350 0 0 -175z m-3850
-2450 l0 -175 -525 0 -525 0 0 175 0 175 525 0 525 0 0 -175z m2100 -525 l0
-350 175 0 175 0 0 175 0 175 350 0 350 0 0 -175 0 -175 175 0 175 0 0 175 0
175 175 0 175 0 0 175 0 175 525 0 525 0 0 -175 0 -175 175 0 175 0 0 175 0
175 175 0 175 0 0 -175 0 -175 175 0 175 0 0 -175 0 -175 175 0 175 0 0 -175
0 -175 -175 0 -175 0 0 175 0 175 -175 0 -175 0 0 -175 0 -175 -525 0 -525 0
0 175 0 175 -525 0 -525 0 0 -525 0 -525 175 0 175 0 0 175 0 175 1050 0 1050
0 0 -175 0 -175 525 0 525 0 0 -175 0 -175 -350 0 -350 0 0 -175 0 -175 175 0
175 0 0 -350 0 -350 175 0 175 0 0 -175 0 -175 -175 0 -175 0 0 -175 0 -175
-175 0 -175 0 0 700 0 700 -700 0 -700 0 0 350 0 350 -175 0 -175 0 0 -350 0
-350 -175 0 -175 0 0 -175 0 -175 175 0 175 0 0 -175 0 -175 175 0 175 0 0
175 0 175 175 0 175 0 0 -350 0 -350 -525 0 -525 0 0 -175 0 -175 175 0 175 0
0 -175 0 -175 -525 0 -525 0 0 350 0 350 -525 0 -525 0 0 175 0 175 350 0 350
0 0 175 0 175 -175 0 -175 0 0 175 0 175 -700 0 -700 0 0 -175 0 -175 350 0
350 0 0 -175 0 -175 -175 0 -175 0 0 -175 0 -175 -525 0 -525 0 0 -175 0 -175
-175 0 -175 0 0 350 0 350 -175 0 -175 0 0 -175 0 -175 -175 0 -175 0 0 175 0
175 -350 0 -350 0 0 175 0 175 -175 0 -175 0 0 175 0 175 -175 0 -175 0 0 175
0 175 175 0 175 0 0 -175 0 -175 175 0 175 0 0 175 0 175 350 0 350 0 0 175 0
175 875 0 875 0 0 -175 0 -175 350 0 350 0 0 525 0 525 -175 0 -175 0 0 -175
0 -175 -175 0 -175 0 0 175 0 175 -175 0 -175 0 0 -175 0 -175 -175 0 -175 0
0 175 0 175 -350 0 -350 0 0 175 0 175 -175 0 -175 0 0 175 0 175 175 0 175 0
0 -175 0 -175 525 0 525 0 0 350 0 350 525 0 525 0 0 -350z m-2800 -175 l0
-175 -175 0 -175 0 0 175 0 175 175 0 175 0 0 -175z m2100 -3500 l0 -175 -175
0 -175 0 0 175 0 175 175 0 175 0 0 -175z m4550 -350 l0 -525 -525 0 -525 0 0
525 0 525 525 0 525 0 0 -525z m-2100 -350 l0 -175 -175 0 -175 0 0 -175 0
-175 -175 0 -175 0 0 -175 0 -175 -175 0 -175 0 0 175 0 175 175 0 175 0 0
350 0 350 350 0 350 0 0 -175z m3150 0 l0 -175 -175 0 -175 0 0 -175 0 -175
-175 0 -175 0 0 -175 0 -175 -175 0 -175 0 0 175 0 175 175 0 175 0 0 350 0
350 350 0 350 0 0 -175z m-2450 -350 l0 -175 -175 0 -175 0 0 175 0 175 175 0
175 0 0 -175z m1050 -350 l0 -175 -175 0 -175 0 0 175 0 175 175 0 175 0 0
-175z m-700 -350 l0 -175 175 0 175 0 0 -175 0 -175 -175 0 -175 0 0 175 0
175 -175 0 -175 0 0 175 0 175 175 0 175 0 0 -175z m1400 -350 l0 -175 -175 0
-175 0 0 175 0 175 175 0 175 0 0 -175z m700 0 l0 -175 -175 0 -175 0 0 175 0
175 175 0 175 0 0 -175z"/>
<path d="M5600 8400 l0 -350 175 0 175 0 0 350 0 350 -175 0 -175 0 0 -350z"/>
<path d="M6300 8400 l0 -350 175 0 175 0 0 350 0 350 -175 0 -175 0 0 -350z"/>
<path d="M4550 8225 l0 -175 175 0 175 0 0 175 0 175 -175 0 -175 0 0 -175z"/>
<path d="M8400 6825 l0 -175 175 0 175 0 0 175 0 175 -175 0 -175 0 0 -175z"/>
<path d="M4550 6475 l0 -175 175 0 175 0 0 175 0 175 -175 0 -175 0 0 -175z"/>
<path d="M5600 6475 l0 -175 175 0 175 0 0 175 0 175 -175 0 -175 0 0 -175z"/>
<path d="M5950 5775 l0 -175 -175 0 -175 0 0 -175 0 -175 175 0 175 0 0 -175
0 -175 175 0 175 0 0 -175 0 -175 175 0 175 0 0 175 0 175 -175 0 -175 0 0
175 0 175 175 0 175 0 0 175 0 175 -175 0 -175 0 0 175 0 175 -175 0 -175 0 0
-175z"/>
<path d="M8750 5425 l0 -175 175 0 175 0 0 175 0 175 -175 0 -175 0 0 -175z"/>
<path d="M2800 5075 l0 -175 -175 0 -175 0 0 -175 0 -175 175 0 175 0 0 -175
0 -175 175 0 175 0 0 175 0 175 175 0 175 0 0 -175 0 -175 175 0 175 0 0 525
0 525 -525 0 -525 0 0 -175z m350 -350 l0 -175 -175 0 -175 0 0 175 0 175 175
0 175 0 0 -175z"/>
<path d="M4200 5075 l0 -175 175 0 175 0 0 175 0 175 -175 0 -175 0 0 -175z"/>
<path d="M4200 4375 l0 -175 175 0 175 0 0 175 0 175 -175 0 -175 0 0 -175z"/>
<path d="M7000 4375 l0 -175 175 0 175 0 0 175 0 175 -175 0 -175 0 0 -175z"/>
<path d="M8400 2975 l0 -175 175 0 175 0 0 175 0 175 -175 0 -175 0 0 -175z"/>
<path d="M8400 9625 l0 -1225 1225 0 1225 0 0 1225 0 1225 -1225 0 -1225 0 0
-1225z m2080 0 l0 -855 -855 0 -855 0 0 855 0 855 855 0 855 0 0 -855z"/>
<path d="M9100 9625 l0 -525 525 0 525 0 0 525 0 525 -525 0 -525 0 0 -525z"/>
<path d="M10500 7525 l0 -175 175 0 175 0 0 175 0 175 -175 0 -175 0 0 -175z"/>
<path d="M10500 6125 l0 -175 175 0 175 0 0 175 0 175 -175 0 -175 0 0 -175z"/>
<path d="M10500 4725 l0 -175 175 0 175 0 0 175 0 175 -175 0 -175 0 0 -175z"/>
<path d="M700 1925 l0 -1225 1225 0 1225 0 0 1225 0 1225 -1225 0 -1225 0 0
-1225z m2080 0 l0 -855 -855 0 -855 0 0 855 0 855 855 0 855 0 0 -855z"/>
<path d="M1400 1925 l0 -525 525 0 525 0 0 525 0 525 -525 0 -525 0 0 -525z"/>
<path d="M6650 875 l0 -175 175 0 175 0 0 175 0 175 -175 0 -175 0 0 -175z"/>
</g>
</svg>
